<?xml version="1.0" standalone="no"?>
<!DOCTYPE svg PUBLIC "-//W3C//DTD SVG 20010904//EN"
 "http://www.w3.org/TR/2001/REC-SVG-20010904/DTD/svg10.dtd">
<svg version="1.0" xmlns="http://www.w3.org/2000/svg"
 width="2048.000000pt" height="2034.000000pt" viewBox="0 0 2048.000000 2034.000000"
 preserveAspectRatio="xMidYMid meet">

<g transform="translate(0.000000,2034.000000) scale(0.100000,-0.100000)"
fill="#000000" stroke="none">
<path d="M0 10170 l0 -10170 10240 0 10240 0 0 10170 0 10170 -10240 0 -10240
0 0 -10170z m9808 9205 c119 -74 237 -164 340 -260 l72 -67 0 -1503 0 -1502
-123 -5 c-67 -3 -132 -10 -145 -17 l-22 -12 1 -727 c1 -400 5 -839 8 -976 l6
-248 77 98 c43 55 111 135 152 179 l74 80 62 -60 c74 -72 206 -226 234 -275
l20 -34 8 34 c9 41 8 1590 -1 1792 -4 90 -10 141 -19 150 -8 8 -56 14 -147 16
l-135 4 0 1464 c0 805 4 1465 9 1468 11 7 143 -161 231 -296 42 -64 110 -181
150 -260 40 -79 73 -144 74 -145 1 -1 78 -9 171 -18 502 -48 892 -116 1380
-240 1222 -311 2298 -876 3285 -1724 184 -158 618 -592 781 -781 1143 -1325
1768 -2771 1975 -4570 46 -402 43 -1152 -6 -1590 -145 -1288 -540 -2450 -1183
-3474 -542 -863 -1222 -1603 -2042 -2220 -769 -580 -1622 -1005 -2560 -1276
-796 -230 -1494 -330 -2297 -330 -806 0 -1468 96 -2293 332 -919 262 -1782
694 -2570 1286 -630 474 -1148 992 -1615 1613 -669 892 -1100 1787 -1370 2844
-201 788 -286 1541 -260 2307 6 156 12 292 14 303 2 11 7 65 11 120 15 222 77
638 136 925 244 1173 671 2155 1351 3106 407 570 861 1059 1388 1499 1101 916
2280 1472 3720 1754 289 56 684 111 803 111 47 0 47 0 41 -27 -6 -23 -30 -80
-39 -90 -4 -6 -111 -23 -232 -38 -1636 -200 -3111 -854 -4338 -1924 -157 -138
-494 -470 -655 -646 -900 -990 -1522 -2157 -1839 -3457 -215 -880 -282 -1792
-195 -2658 172 -1726 825 -3229 1975 -4545 152 -175 511 -532 689 -687 1162
-1010 2465 -1631 3960 -1887 363 -62 611 -87 1028 -103 1905 -72 3775 541
5258 1724 434 346 826 731 1198 1178 986 1182 1615 2680 1780 4235 56 526 56
1133 0 1665 -123 1166 -506 2313 -1101 3293 -981 1616 -2507 2847 -4260 3436
-646 217 -1242 341 -1962 407 l-74 6 7 -26 c19 -78 48 -134 70 -140 13 -3 106
-15 207 -26 944 -106 1782 -346 2597 -745 543 -266 982 -543 1442 -910 901
-720 1619 -1605 2128 -2625 450 -901 695 -1771 799 -2835 25 -261 25 -1049 0
-1320 -76 -816 -243 -1525 -527 -2233 -439 -1097 -1104 -2061 -1985 -2875
-847 -782 -1899 -1383 -3008 -1717 -557 -168 -1163 -279 -1749 -320 -196 -14
-1048 -7 -1198 9 -52 6 -117 13 -145 16 -868 98 -1674 318 -2435 664 -1614
736 -2947 2024 -3744 3619 -449 898 -713 1849 -802 2887 -22 267 -22 937 0
1205 66 774 215 1450 467 2128 396 1061 1003 2006 1804 2807 1011 1010 2254
1713 3640 2059 368 92 1075 209 1075 179 0 -23 -156 -190 -486 -523 -194 -195
-380 -386 -414 -425 -163 -186 -287 -375 -365 -557 -50 -118 -109 -305 -126
-403 -8 -49 -17 -69 -33 -79 -11 -8 -88 -42 -171 -77 -1079 -454 -2044 -1247
-2710 -2227 -544 -802 -884 -1688 -1014 -2647 -71 -523 -71 -1140 0 -1660 138
-1016 520 -1969 1122 -2800 293 -404 681 -815 1097 -1161 510 -424 1178 -803
1825 -1036 526 -189 1115 -311 1680 -348 198 -13 622 -13 821 1 181 11 514 51
684 80 783 136 1606 465 2295 916 519 341 1006 778 1397 1254 1287 1567 1724
3669 1168 5622 -339 1194 -1031 2254 -1998 3063 -370 310 -770 568 -1237 799
-328 162 -785 343 -785 310 0 -7 13 -69 30 -137 16 -68 37 -168 46 -223 22
-135 30 -460 14 -594 -35 -312 -140 -668 -265 -897 -81 -149 -224 -354 -246
-354 -5 0 -9 194 -9 441 0 284 -4 447 -10 460 -10 17 -22 19 -140 19 l-130 0
0 690 0 691 24 47 c123 245 138 547 45 901 -46 175 -89 250 -230 398 -48 50
-108 121 -134 157 -26 36 -49 66 -52 66 -12 0 8 -62 47 -149 72 -159 130 -428
130 -600 0 -111 -24 -240 -57 -307 -35 -73 -107 -150 -164 -180 -58 -29 -59
-32 -24 -164 49 -184 124 -301 201 -316 28 -5 47 -1 83 17 25 13 49 25 54 27
4 2 7 -285 7 -637 l0 -641 -130 0 c-118 0 -130 -2 -140 -19 -6 -13 -10 -171
-10 -445 0 -396 1 -425 18 -430 9 -2 51 -10 92 -16 180 -28 423 -102 700 -213
431 -172 694 -314 1245 -672 286 -186 433 -267 572 -314 l92 -31 37 25 c45 31
95 32 141 4 61 -38 127 -25 186 36 48 50 55 75 66 246 10 162 19 192 70 226
61 41 123 26 159 -40 26 -48 25 -403 -2 -500 -31 -114 -107 -212 -201 -260
-27 -13 -83 -30 -178 -51 -24 -6 -27 -10 -21 -29 3 -12 94 -258 201 -547 107
-289 267 -721 355 -960 88 -239 187 -505 218 -590 32 -85 141 -380 243 -655
102 -275 233 -631 293 -792 l108 -292 66 -3 65 -3 -2 -52 c-3 -72 -56 -227
-109 -317 -55 -94 -182 -228 -279 -295 -178 -123 -477 -224 -850 -285 -421
-70 -872 -39 -1323 89 -313 90 -514 207 -652 381 -101 126 -177 302 -182 420
l-3 59 60 3 60 3 524 1392 c289 766 607 1608 706 1872 100 264 191 506 203
537 l21 57 -42 15 c-23 8 -87 29 -142 47 -55 17 -185 68 -290 112 -421 176
-786 289 -1160 356 -186 34 -373 61 -417 61 l-28 0 0 -3450 0 -3450 -139 0
-139 0 -4 -930 c-2 -719 -6 -932 -15 -941 -7 -7 -14 -11 -17 -8 -11 13 -16
298 -16 1047 l0 832 -144 0 -144 0 -4 3442 c-3 1894 -8 3450 -12 3459 -6 13
-17 16 -49 12 -85 -10 -235 -43 -362 -80 l-130 -38 -5 -3900 c-3 -2145 -9
-3907 -13 -3916 -10 -20 -69 -29 -188 -29 l-88 0 -3 -464 c-2 -255 -6 -468
-10 -472 -5 -4 -11 -4 -15 0 -5 4 -9 216 -11 471 l-3 462 -135 5 c-103 3 -138
8 -145 19 -10 16 -9 -38 -18 4559 l-6 3254 -103 33 c-165 52 -442 109 -457 95
-3 -3 -5 -1559 -5 -3459 l0 -3453 -135 0 -135 0 -1 -902 c0 -497 -3 -921 -7
-943 -23 -124 -27 38 -24 917 l2 928 -155 0 -155 0 0 3449 c0 1898 -3 3452 -7
3454 -5 3 -35 1 -68 -3 -33 -5 -116 -16 -185 -25 -460 -62 -886 -188 -1470
-433 -80 -34 -200 -77 -265 -95 -81 -23 -120 -39 -119 -48 1 -8 40 -115 87
-239 78 -203 581 -1537 1150 -3047 l212 -563 61 0 c33 0 63 -2 66 -5 10 -11
-24 -171 -53 -245 -77 -201 -245 -380 -462 -491 -345 -177 -985 -284 -1438
-239 -272 27 -617 103 -814 180 -329 129 -555 367 -625 660 -32 135 -30 140
71 140 l46 0 58 157 c31 87 129 352 217 588 145 391 470 1268 964 2609 101
275 182 501 180 503 -2 3 -35 12 -73 22 -172 45 -274 145 -320 312 -22 79 -25
397 -5 466 24 83 97 106 168 55 21 -16 44 -35 50 -43 8 -9 13 -73 16 -169 3
-143 5 -158 28 -200 30 -53 97 -107 146 -116 28 -5 42 -1 72 20 51 35 109 35
150 1 28 -23 31 -23 78 -11 121 33 288 116 479 239 72 46 218 140 325 209 674
432 1253 678 1840 781 l75 13 0 147 c0 81 -1 280 -3 442 l-2 294 -137 3 -138
3 -3 1109 -2 1109 117 124 c366 389 479 525 567 688 128 238 190 504 190 825
0 157 -3 198 -22 275 -48 193 -112 342 -200 464 -59 82 -65 91 -55 91 4 0 54
-29 111 -65z m-769 -2992 c0 -291 -3 -776 -6 -1080 l-6 -552 -131 -3 -131 -3
-7 -45 c-3 -25 -7 -202 -7 -394 -1 -401 7 -383 -99 -222 -133 201 -221 406
-281 647 -53 215 -63 316 -64 614 -1 247 1 278 22 370 84 365 254 679 565
1040 65 76 138 155 143 155 2 0 3 -237 2 -527z"/>
<path d="M12493 17193 c-9 -21 -67 -173 -129 -337 -102 -272 -111 -301 -96
-311 24 -16 122 -55 137 -55 13 0 29 38 117 273 22 59 43 106 45 103 3 -2 0
-59 -6 -124 -6 -66 -11 -163 -11 -216 l0 -95 55 -20 c31 -12 57 -21 60 -21 2
0 63 74 136 165 73 90 134 163 136 161 2 -2 -28 -87 -67 -190 -38 -102 -70
-188 -70 -190 0 -4 127 -44 154 -48 15 -3 28 23 75 142 32 80 88 230 125 333
78 217 81 198 -39 241 -134 49 -112 59 -258 -124 -71 -89 -130 -160 -133 -158
-2 3 1 93 7 201 6 109 9 203 6 211 -5 11 -198 96 -220 96 -4 0 -15 -17 -24
-37z"/>
<path d="M7366 17020 c-63 -16 -155 -71 -193 -114 -20 -23 -47 -66 -61 -96
-23 -47 -26 -69 -27 -150 0 -86 3 -101 32 -162 42 -89 101 -151 182 -191 60
-29 74 -32 161 -32 88 0 101 3 162 33 79 39 147 103 180 169 20 41 23 63 23
153 0 109 -24 210 -48 210 -10 0 -365 -148 -376 -157 -7 -5 27 -106 42 -127
12 -17 17 -16 95 15 45 17 85 29 88 26 10 -9 -34 -83 -59 -100 -129 -84 -287
7 -287 166 0 60 23 104 73 141 23 17 48 22 135 27 93 4 116 9 176 37 l69 32
-29 31 c-49 51 -138 88 -224 94 -41 2 -92 0 -114 -5z"/>
<path d="M13569 16592 c-75 -64 -207 -177 -293 -251 -179 -152 -173 -133 -57
-198 69 -38 75 -38 134 9 l28 23 95 -50 95 -50 -6 -61 -6 -61 86 -42 c48 -23
89 -40 92 -37 3 3 16 83 30 178 13 95 36 263 52 372 27 192 27 200 10 217 -15
15 -111 69 -121 69 -2 0 -64 -53 -139 -118z m76 -179 c-25 -120 -37 -173 -42
-173 -12 0 -93 51 -93 59 0 8 125 131 133 131 3 0 4 -8 2 -17z"/>
<path d="M6561 16620 c-34 -22 -64 -47 -67 -55 -4 -9 31 -77 82 -162 49 -81
90 -151 92 -155 2 -4 -59 22 -135 58 -76 36 -169 80 -206 97 l-69 31 -41 -23
c-23 -13 -55 -33 -70 -45 l-29 -23 97 -164 c53 -90 137 -230 187 -311 101
-167 83 -158 186 -90 28 19 52 40 52 47 0 7 -40 79 -90 161 -49 81 -88 150
-86 152 2 1 92 -38 200 -89 138 -64 202 -89 218 -85 13 3 47 20 76 37 41 23
52 34 47 47 -19 51 -362 612 -374 612 -4 0 -36 -18 -70 -40z"/>
<path d="M14264 16307 c-75 -100 -374 -530 -374 -538 0 -4 30 -30 67 -58 78
-58 75 -59 146 42 22 31 42 57 45 57 3 0 2 -53 -1 -117 l-6 -118 87 -57 c49
-32 92 -58 97 -58 4 0 5 65 2 144 l-6 145 67 -1 c49 -1 78 5 107 20 80 41 144
135 153 222 8 91 -47 160 -248 307 -96 69 -91 69 -136 10z m145 -232 c17 -20
33 -46 37 -60 8 -32 -29 -85 -59 -85 -33 1 -107 37 -107 53 0 21 72 127 86
127 7 0 26 -16 43 -35z"/>
<path d="M5744 16082 c-98 -78 -103 -55 48 -258 158 -214 297 -394 304 -394 8
0 122 89 130 101 3 6 -7 29 -22 52 -44 68 -379 511 -396 525 -13 10 -23 6 -64
-26z"/>
<path d="M14862 15698 c-234 -259 -352 -393 -350 -399 2 -3 32 -33 68 -66 l65
-60 94 104 c51 57 95 102 97 100 3 -2 -7 -62 -21 -131 -31 -158 -31 -188 -2
-220 27 -31 119 -106 129 -106 11 0 24 61 48 230 12 85 27 160 34 166 13 14
56 27 264 84 84 24 151 46 150 50 -5 13 -143 130 -154 130 -5 0 -84 -20 -174
-45 -89 -25 -165 -43 -167 -41 -3 2 28 41 69 86 40 46 84 96 97 113 l24 29
-64 59 c-35 32 -67 58 -71 59 -4 0 -65 -64 -136 -142z"/>
<path d="M5337 15761 l-70 -68 33 -172 c18 -95 30 -174 27 -177 -2 -3 -47 40
-98 95 -52 56 -101 101 -109 101 -19 0 -130 -97 -130 -113 0 -13 479 -532 491
-532 10 0 129 113 129 123 0 4 -39 50 -86 102 -52 57 -81 96 -73 98 8 1 77
-15 153 -37 112 -32 143 -37 156 -28 46 33 140 123 140 134 0 14 11 10 -215
69 -99 26 -181 47 -182 48 -2 2 -73 409 -73 420 0 19 -30 -2 -93 -63z"/>
<path d="M15429 15094 c-209 -188 -339 -314 -339 -327 0 -11 151 -185 212
-245 l44 -43 47 36 c80 61 80 68 -10 171 l-54 62 42 36 43 36 46 -53 c26 -28
58 -64 71 -79 l24 -28 65 59 65 58 -73 81 -72 80 37 31 c21 17 40 31 44 31 3
0 34 -31 68 -70 35 -38 68 -70 74 -70 20 0 118 91 115 106 -4 16 -247 294
-258 294 -4 0 -90 -75 -191 -166z"/>
<path d="M4550 14949 c-22 -28 -40 -58 -40 -66 0 -26 356 -673 371 -673 4 0
35 33 68 73 l60 72 -25 42 c-13 23 -24 47 -24 53 0 12 127 162 142 168 5 2 27
-3 49 -12 21 -9 43 -16 48 -16 9 0 131 138 131 149 0 4 -35 20 -77 35 -201 72
-611 213 -635 219 -24 6 -32 1 -68 -44z m333 -233 l58 -26 -37 -45 c-20 -25
-38 -45 -40 -45 -4 0 -95 140 -101 158 -6 15 -3 13 120 -42z"/>
<path d="M15999 14694 c-35 -26 -66 -48 -68 -50 -2 -2 11 -25 28 -52 17 -27
31 -54 31 -60 0 -5 -62 -57 -137 -113 -221 -165 -285 -219 -278 -237 12 -33
91 -131 101 -128 6 3 108 76 226 164 l215 160 37 -49 c20 -27 41 -49 47 -49
13 0 100 62 119 85 10 12 2 29 -46 97 -67 97 -203 278 -208 278 -2 0 -32 -21
-67 -46z"/>
<path d="M4092 14358 c-21 -35 -49 -82 -61 -106 l-22 -44 25 -31 c13 -18 74
-90 135 -162 61 -71 108 -131 103 -133 -4 -1 -95 22 -202 51 -179 50 -196 53
-213 38 -20 -16 -131 -191 -125 -196 22 -20 574 -370 600 -380 11 -4 25 9 50
47 68 103 77 84 -95 191 -83 53 -161 103 -172 112 -20 16 -19 16 5 11 14 -4
106 -28 205 -55 203 -55 194 -56 236 24 l23 44 -20 23 c-49 55 -251 294 -259
307 -9 16 -3 13 60 -29 85 -58 278 -170 292 -170 12 0 93 113 93 130 0 12
-592 390 -610 390 -5 0 -26 -28 -48 -62z"/>
<path d="M16309 14052 c-44 -22 -59 -37 -79 -77 -22 -46 -24 -59 -23 -182 2
-126 1 -133 -20 -148 -30 -21 -53 -19 -71 7 -23 33 -20 66 10 93 14 13 24 28
22 33 -10 25 -83 142 -89 142 -3 0 -28 -19 -54 -42 -87 -76 -107 -166 -59
-268 44 -95 109 -146 204 -157 75 -9 113 3 168 52 61 55 72 92 72 237 0 121 5
145 32 154 44 13 72 -45 47 -100 -10 -21 -7 -32 25 -85 21 -33 42 -63 47 -67
14 -9 76 53 100 98 54 105 -11 257 -136 314 -69 32 -129 31 -196 -4z"/>
<path d="M10204 13624 c-20 -36 -46 -71 -58 -79 -12 -8 -55 -21 -96 -30 -40
-9 -76 -18 -79 -21 -3 -2 23 -33 57 -67 58 -58 62 -66 61 -107 0 -25 -4 -67
-9 -95 -4 -27 -6 -52 -4 -54 2 -2 43 13 91 33 l87 38 84 -41 85 -42 -7 98 -7
98 56 65 c30 35 55 67 55 71 0 4 -35 14 -77 24 -43 9 -83 18 -89 20 -6 2 -30
37 -53 79 -23 42 -46 76 -51 76 -5 0 -26 -29 -46 -66z"/>
<path d="M3610 12672 c-74 -74 -63 -183 23 -222 60 -28 109 -26 147 6 114 96
54 254 -96 254 -29 0 -44 -8 -74 -38z"/>
<path d="M16691 12648 c-103 -51 -102 -202 2 -251 46 -22 72 -21 125 4 106 52
101 198 -9 254 -38 20 -66 19 -118 -7z"/>
<path d="M6537 12263 c-4 -3 -7 -867 -7 -1920 l0 -1913 746 0 c706 0 746 1
741 18 -2 9 -172 460 -377 1002 -204 542 -518 1372 -696 1845 -179 473 -335
886 -347 918 -20 53 -41 70 -60 50z"/>
<path d="M13757 11963 c-466 -1236 -1025 -2717 -1159 -3073 -88 -234 -163
-433 -166 -442 -4 -17 36 -18 735 -18 l740 0 6 173 c4 94 7 958 7 1920 l0
1747 -23 0 c-22 0 -33 -25 -140 -307z"/>
<path d="M6413 12248 c-6 -7 -62 -155 -125 -328 -111 -302 -436 -1182 -1017
-2755 l-269 -730 735 -3 c405 -1 737 -1 738 0 1 2 0 864 -3 1916 l-5 1912 -22
0 c-12 0 -27 -6 -32 -12z"/>
<path d="M13986 12178 c-3 -46 -8 -908 -11 -1915 l-5 -1833 740 0 740 0 -34
93 c-38 103 -642 1738 -771 2087 -45 124 -199 540 -341 925 -141 385 -262 706
-267 713 -5 6 -17 12 -27 12 -16 0 -19 -12 -24 -82z"/>
<path d="M3465 11398 c-4 -30 -10 -60 -13 -65 -5 -8 -55 -3 -157 14 -82 13
-203 32 -268 42 l-118 17 -4 -20 c-12 -53 -25 -159 -20 -164 5 -5 67 -15 320
-52 180 -27 215 -36 215 -58 0 -9 -5 -35 -10 -57 -5 -23 -5 -44 0 -49 7 -7
161 -37 167 -32 3 2 61 368 65 406 4 43 -17 55 -109 65 l-61 7 -7 -54z"/>
<path d="M17132 11440 c-109 -23 -200 -85 -244 -167 -48 -87 -52 -125 -33
-292 23 -212 21 -207 81 -203 27 2 146 17 264 33 118 17 253 35 300 40 47 6
89 15 95 20 13 13 -18 256 -44 340 -36 115 -94 180 -193 215 -53 19 -170 26
-226 14z m187 -208 c35 -25 68 -86 81 -146 6 -27 9 -50 8 -51 -9 -8 -371 -55
-379 -49 -17 10 -6 153 14 191 18 33 58 60 112 74 47 13 136 2 164 -19z"/>
<path d="M2839 10834 c-7 -8 -14 -50 -17 -93 -5 -91 -6 -91 108 -91 36 0 70
-4 77 -8 8 -5 -26 -27 -91 -59 l-103 -51 -7 -107 c-4 -59 -5 -109 -3 -112 7
-6 67 27 167 91 l84 54 24 -41 c34 -61 58 -83 115 -107 73 -32 189 -25 245 14
77 53 105 138 117 357 l6 116 -53 6 c-29 4 -183 13 -343 22 -159 9 -295 17
-302 20 -6 2 -17 -3 -24 -11z m520 -213 c18 -11 10 -81 -13 -116 -20 -30 -64
-33 -96 -7 -18 14 -24 32 -28 75 l-4 57 63 0 c35 0 70 -4 78 -9z"/>
<path d="M17455 10562 c-2 -2 -2 -25 0 -51 3 -25 6 -72 9 -103 l5 -58 -60 0
-59 0 0 69 c0 38 -3 83 -6 100 l-6 31 -84 0 -84 0 0 -105 0 -105 -50 0 -49 0
-3 108 -3 107 -55 -3 c-30 -2 -68 -5 -84 -9 l-29 -5 6 -195 c3 -107 7 -197 9
-198 5 -5 572 13 657 21 l74 7 -7 166 c-4 91 -9 181 -13 199 l-5 33 -80 -3
c-43 -1 -81 -4 -83 -6z"/>
<path d="M2802 10033 l3 -98 52 -18 51 -19 7 -96 c4 -54 9 -104 11 -114 4 -12
-5 -19 -33 -28 -58 -19 -73 -37 -73 -86 0 -63 20 -146 33 -141 122 50 675 302
682 311 6 8 8 43 5 82 l-5 69 -350 117 c-192 64 -358 117 -368 117 -16 1 -17
-8 -15 -96z m338 -192 c19 -6 55 -15 79 -21 24 -6 40 -15 35 -20 -10 -9 -150
-60 -165 -60 -5 0 -9 25 -9 55 0 60 2 61 60 46z"/>
<path d="M17466 9908 c-3 -13 -8 -58 -11 -100 -4 -43 -10 -80 -13 -82 -4 -2
-101 3 -217 10 -115 8 -237 13 -270 12 l-60 -3 -6 -85 c-4 -47 -3 -87 2 -90 5
-3 107 -11 226 -18 120 -7 279 -17 353 -22 74 -5 135 -8 137 -7 9 9 26 378 18
386 -6 5 -42 12 -82 15 -70 7 -72 6 -77 -16z"/>
<path d="M3305 9305 c-137 -24 -292 -51 -344 -61 l-94 -16 6 -73 c4 -39 9 -79
13 -89 8 -22 43 -21 213 9 80 14 148 24 153 23 5 -2 -66 -73 -157 -158 -163
-153 -165 -155 -158 -190 13 -73 29 -125 38 -124 6 1 167 28 358 60 l349 58
-7 45 c-4 25 -11 67 -17 93 -8 42 -12 47 -31 43 -12 -2 -69 -11 -127 -19 -58
-9 -127 -20 -155 -25 -27 -5 -51 -8 -53 -6 -2 1 69 71 157 156 l161 153 -7 40
c-9 63 -27 119 -38 122 -6 1 -122 -18 -260 -41z"/>
<path d="M16955 9305 c-47 -26 -82 -64 -103 -114 -18 -41 -49 -185 -66 -308
l-6 -42 52 -10 c63 -13 590 -98 633 -103 28 -3 31 0 42 42 6 25 12 66 12 92
l1 46 -72 11 c-40 7 -88 14 -105 17 l-33 5 0 92 c0 148 -29 216 -113 259 -57
29 -198 37 -242 13z m169 -197 c10 -14 16 -44 16 -75 l0 -53 -37 0 c-38 0
-111 14 -119 23 -8 7 34 110 48 119 26 16 76 9 92 -14z"/>
<path d="M16721 8581 c-15 -26 -43 -152 -37 -159 8 -7 243 -69 484 -127 142
-34 205 -46 213 -38 7 7 47 137 49 160 0 5 -106 33 -380 102 -157 40 -293 74
-302 77 -10 3 -21 -3 -27 -15z"/>
<path d="M3487 8469 c-20 -11 -50 -38 -66 -60 -28 -37 -34 -57 -62 -193 -16
-75 -37 -101 -72 -92 -15 3 -35 18 -44 33 -17 26 -17 26 26 64 l42 38 -23 78
c-22 71 -26 78 -48 75 -38 -4 -107 -49 -137 -89 -23 -30 -28 -48 -31 -109 -4
-65 -1 -81 26 -137 73 -158 258 -196 368 -76 37 40 49 70 69 167 25 121 56
162 95 127 27 -24 25 -61 -4 -88 l-23 -22 21 -75 c14 -48 27 -76 37 -78 26 -5
112 60 137 103 19 34 22 51 19 110 -6 108 -61 193 -149 229 -52 22 -134 20
-181 -5z"/>
<path d="M4995 8168 c109 -180 249 -297 452 -377 69 -27 333 -98 405 -109 95
-15 88 2 -23 56 -108 53 -245 150 -371 263 -59 53 -81 82 -111 143 -20 42 -37
81 -37 86 0 6 -67 10 -180 10 l-180 0 45 -72z"/>
<path d="M12440 8231 c0 -22 110 -173 169 -232 142 -141 278 -208 576 -284
103 -26 225 -43 225 -31 0 3 -33 22 -74 40 -100 46 -221 127 -339 228 -106 91
-153 149 -187 233 l-22 55 -174 0 c-96 0 -174 -4 -174 -9z"/>
<path d="M16740 8114 c-65 -17 -148 -70 -184 -116 -14 -19 -38 -61 -53 -93
-23 -51 -27 -73 -27 -150 -1 -77 3 -98 26 -148 34 -73 121 -160 192 -193 48
-22 69 -25 162 -25 94 0 112 3 159 25 66 33 148 119 183 193 23 50 27 71 27
148 0 78 -4 97 -27 145 -31 62 -112 160 -133 160 -12 0 -75 -143 -75 -170 0
-6 9 -29 21 -52 27 -53 23 -144 -8 -186 -64 -86 -170 -102 -264 -39 -109 73
-85 260 39 310 48 19 54 27 86 106 38 93 36 101 -21 100 -27 0 -73 -7 -103
-15z"/>
<path d="M3725 7814 c-398 -166 -465 -196 -465 -209 0 -28 53 -155 64 -155 7
0 51 16 99 35 48 19 92 35 99 35 7 0 26 -26 43 -58 35 -66 96 -137 139 -159
41 -21 157 -13 212 15 79 41 134 124 134 206 0 56 -116 367 -137 365 -4 0 -89
-34 -188 -75z m115 -190 c22 -56 23 -104 5 -124 -22 -24 -77 -26 -100 -4 -16
17 -59 94 -53 98 9 6 124 54 131 55 4 1 12 -11 17 -25z"/>
<path d="M16273 7307 c-37 -61 -58 -106 -52 -111 2 -2 75 -41 162 -87 131 -69
154 -85 135 -90 -13 -4 -106 -15 -208 -24 -102 -10 -193 -22 -203 -27 -9 -5
-33 -40 -52 -78 l-35 -70 112 -56 c110 -55 211 -107 427 -222 100 -53 105 -54
119 -36 18 24 76 144 71 148 -2 2 -70 39 -151 81 -82 43 -148 81 -148 86 0 4
8 10 18 13 16 5 366 45 398 46 6 0 26 32 44 71 l33 72 -22 16 c-11 9 -155 85
-319 168 l-298 153 -31 -53z"/>
<path d="M4255 7054 c-5 -2 -138 -19 -295 -39 -392 -48 -420 -53 -420 -73 0
-10 17 -48 38 -87 l37 -70 59 0 58 0 49 -85 c27 -47 49 -92 49 -101 0 -8 -16
-30 -35 -49 l-35 -33 43 -80 c23 -44 47 -81 53 -84 15 -6 53 36 308 330 l205
239 -25 51 c-39 78 -57 94 -89 81z m-226 -264 c-35 -38 -66 -70 -69 -70 -9 0
-54 99 -48 105 6 7 127 33 156 34 20 1 15 -8 -39 -69z"/>
<path d="M15873 6588 c-34 -38 -75 -109 -70 -122 3 -7 128 -92 279 -190 150
-97 283 -184 295 -192 21 -15 23 -14 53 28 18 24 40 60 51 80 l19 37 -28 19
c-42 30 -524 338 -549 350 -28 15 -26 16 -50 -10z"/>
<path d="M4525 6541 c-22 -15 -156 -107 -298 -205 l-257 -177 51 -74 c58 -84
47 -83 149 -15 30 20 60 40 67 44 7 3 -11 -43 -38 -104 l-50 -110 61 -90 c34
-49 64 -90 67 -90 7 0 48 100 77 187 l28 83 30 -16 c44 -23 129 -29 184 -14
59 17 158 105 175 157 18 54 6 142 -27 199 -46 80 -164 254 -172 254 -4 -1
-25 -13 -47 -29z m34 -256 c11 -14 23 -39 26 -56 13 -58 -45 -105 -97 -79 -32
17 -78 61 -78 76 0 11 105 84 121 84 4 0 17 -11 28 -25z"/>
<path d="M15598 6150 c-66 -44 -256 -279 -243 -300 4 -6 133 -106 288 -222
l281 -211 31 36 c16 19 40 53 53 75 l23 41 -76 57 c-41 31 -74 58 -72 60 1 2
56 -2 120 -9 l117 -13 65 91 64 90 -145 3 -144 3 0 67 c0 78 -21 132 -70 180
-86 86 -208 108 -292 52z m154 -189 l33 -29 -20 -47 c-30 -73 -44 -76 -110
-31 -34 24 -55 45 -53 55 4 18 84 81 104 81 7 0 28 -13 46 -29z"/>
<path d="M4919 5912 c-188 -152 -459 -395 -459 -413 0 -23 226 -289 246 -289
16 0 114 89 114 103 0 7 -27 44 -60 82 -33 39 -60 72 -60 75 0 3 17 22 38 42
l37 36 68 -79 c37 -43 72 -79 78 -79 6 0 35 23 65 52 62 59 63 50 -23 156 -34
42 -41 57 -33 71 13 24 60 55 69 44 72 -84 125 -143 131 -143 5 0 36 23 69 51
l61 51 -119 136 c-65 75 -125 143 -133 150 -14 11 -27 4 -89 -46z"/>
<path d="M15181 5608 c-60 -10 -78 -24 -216 -160 l-120 -119 220 -215 c121
-118 239 -231 263 -251 l43 -36 65 64 65 65 -81 78 c-50 48 -78 81 -73 89 3 7
24 35 44 62 82 109 98 189 55 273 -54 106 -164 168 -265 150z m76 -210 c36
-34 25 -96 -25 -142 -21 -18 -22 -17 -76 34 -31 29 -56 56 -56 59 0 12 95 71
114 71 11 0 30 -10 43 -22z"/>
<path d="M5203 5288 c-110 -117 -220 -236 -246 -264 l-47 -51 67 -64 66 -64
132 139 133 138 -15 -88 c-7 -49 -24 -152 -37 -228 l-24 -140 56 -50 c30 -28
60 -51 65 -51 5 0 119 117 253 260 l244 260 -66 65 -65 65 -130 -135 c-70 -74
-129 -130 -129 -125 0 6 11 75 25 155 14 80 30 176 37 213 l11 68 -53 47 c-29
26 -59 50 -66 55 -8 5 -77 -62 -211 -205z"/>
<path d="M5954 4937 c-22 -25 -46 -56 -53 -71 -14 -26 -13 -28 34 -69 l48 -43
-161 -215 c-89 -118 -162 -216 -162 -220 0 -13 140 -110 150 -104 6 4 79 97
162 208 83 111 154 206 159 211 4 5 30 -8 57 -28 27 -20 54 -36 58 -36 11 0
94 121 94 136 0 9 -150 128 -330 262 -15 11 -22 7 -56 -31z"/>
<path d="M14106 4730 c-34 -10 -101 -72 -122 -112 -18 -36 -18 -112 1 -152 19
-39 79 -98 120 -118 17 -8 28 -20 26 -29 -9 -33 -13 -121 -7 -154 9 -48 67
-110 122 -131 53 -20 133 -15 191 12 55 27 118 95 144 159 17 41 27 54 38 50
8 -3 34 -9 57 -12 l42 -5 6 43 c3 24 7 62 8 84 l3 40 -61 9 -61 8 -17 97 c-10
53 -23 109 -29 124 l-12 29 -65 -44 -65 -43 3 -58 c2 -54 1 -57 -22 -57 -48 0
-56 9 -56 65 0 68 -16 112 -53 153 -45 47 -119 63 -191 42z m78 -156 c9 -8 16
-31 16 -50 l0 -35 -30 16 c-41 21 -55 49 -34 69 19 20 29 20 48 0z m186 -275
c57 -12 64 -29 29 -73 -45 -57 -133 -13 -115 57 7 30 14 32 86 16z"/>
<path d="M13118 4139 c-98 -49 -178 -91 -178 -92 0 -7 288 -604 302 -626 7
-11 17 -21 22 -21 4 0 87 38 183 85 l174 84 -27 53 c-15 29 -33 63 -41 75
l-15 22 -89 -44 c-49 -25 -92 -45 -97 -45 -9 0 -47 98 -41 105 2 1 43 21 92
43 48 23 87 45 87 51 0 23 -65 141 -77 141 -8 0 -49 -18 -93 -40 -44 -22 -84
-40 -89 -40 -13 0 -44 81 -34 91 4 4 45 26 91 49 73 37 82 44 76 63 -7 24 -63
137 -67 136 -1 0 -82 -40 -179 -90z"/>
<path d="M7171 3953 c-143 -302 -203 -443 -198 -457 5 -12 315 -156 337 -156
13 0 72 128 65 140 -4 6 -42 28 -86 50 -43 22 -79 44 -79 48 0 5 47 109 104
233 57 123 106 234 110 246 6 20 -1 26 -63 58 -39 19 -77 35 -84 35 -8 0 -52
-81 -106 -197z"/>
<path d="M6167 4050 l-47 -70 25 -16 c30 -20 32 -40 5 -54 -14 -8 -26 -7 -42
1 -18 10 -24 8 -39 -12 -31 -40 -24 -65 21 -83 86 -34 125 -12 209 115 34 51
61 96 61 100 0 9 -123 89 -137 89 -5 0 -31 -31 -56 -70z"/>
<path d="M12555 3898 c-104 -39 -192 -73 -194 -75 -6 -4 35 -132 48 -152 7
-11 19 -10 70 7 46 15 63 18 66 9 60 -165 168 -443 181 -462 9 -14 24 -25 34
-25 21 0 131 37 142 48 4 4 -33 117 -82 250 -50 133 -90 248 -90 256 0 8 22
23 53 34 28 11 53 27 55 35 2 8 -10 45 -27 81 -21 46 -35 66 -48 66 -10 0
-103 -33 -208 -72z"/>
<path d="M7772 3842 c-71 -185 -194 -549 -196 -577 -1 -29 2 -31 130 -82 144
-58 220 -81 231 -70 10 11 51 141 47 149 -2 3 -39 18 -82 32 -42 15 -83 30
-91 35 -14 9 -12 32 9 85 l9 25 87 -29 c48 -17 96 -30 105 -30 12 0 24 20 42
74 l25 75 -80 30 c-44 17 -83 31 -86 31 -27 1 -32 18 -16 62 l15 46 87 -29
c47 -16 92 -29 99 -29 7 0 24 25 37 55 45 100 54 90 -149 161 -99 35 -183 63
-187 63 -3 1 -20 -34 -36 -77z"/>
<path d="M11909 3694 c-38 -11 -48 -19 -52 -42 -12 -61 -79 -734 -73 -740 8
-8 150 26 171 41 9 7 19 32 22 55 3 23 12 47 19 53 13 10 177 59 201 59 7 0
24 -20 39 -45 14 -25 27 -45 28 -45 6 0 147 41 169 49 l28 11 -48 67 c-74 106
-300 411 -360 486 -59 73 -65 76 -144 51z m191 -419 c0 -13 -89 -37 -103 -28
-9 6 -1 131 10 160 4 10 20 -6 49 -53 24 -37 44 -73 44 -79z"/>
<path d="M8533 3656 c-181 -59 -293 -243 -263 -429 38 -236 300 -381 518 -287
60 26 139 105 175 176 27 53 53 131 46 139 -9 8 -391 95 -399 90 -9 -5 -23
-47 -34 -97 -9 -38 12 -53 99 -74 41 -10 75 -21 75 -25 0 -15 -70 -39 -115
-39 -74 0 -129 38 -160 112 -42 102 13 218 116 245 47 12 114 1 147 -25 70
-56 108 -76 180 -93 42 -11 81 -19 86 -19 4 0 5 17 2 38 -19 103 -116 220
-223 269 -69 32 -184 41 -250 19z"/>
<path d="M11375 3574 c-120 -18 -132 -21 -138 -39 -4 -8 -20 -94 -37 -192 -17
-98 -35 -184 -40 -193 -7 -11 -15 -2 -33 40 -63 141 -139 296 -152 310 -13 14
-25 14 -127 0 -102 -14 -113 -17 -116 -37 -4 -27 85 -693 93 -702 2 -2 39 3
82 10 l78 14 -1 72 c-1 40 -9 123 -19 187 -10 63 -15 120 -13 127 2 6 44 -73
92 -177 48 -104 89 -190 90 -191 5 -5 120 17 128 25 4 4 19 75 34 157 14 83
30 173 36 200 11 48 11 49 19 20 4 -16 17 -105 30 -197 16 -120 26 -168 35
-168 7 0 47 5 89 11 64 10 75 14 75 31 0 11 -11 104 -25 206 -14 103 -32 237
-41 297 -21 162 -28 198 -39 201 -6 1 -50 -4 -100 -12z"/>
<path d="M9276 3504 c-18 -95 -82 -681 -75 -689 9 -8 147 -25 162 -19 16 6 18
17 46 234 35 268 53 472 43 482 -6 6 -46 12 -90 15 l-80 6 -6 -29z"/>
<path d="M9660 3411 l0 -91 59 0 c33 0 62 -4 66 -9 5 -9 -7 -300 -20 -472 l-6
-77 86 -7 c48 -4 91 -3 95 2 8 8 24 194 36 417 l7 128 68 -6 69 -7 0 90 0 89
-62 6 c-35 3 -112 8 -173 11 -60 3 -136 8 -167 11 l-58 6 0 -91z"/>
<path d="M10304 3433 c3 -21 8 -183 12 -360 l7 -323 95 0 95 0 -7 238 c-3 130
-9 292 -12 360 l-7 122 -94 0 -95 0 6 -37z"/>
</g>
</svg>
